<mxfile host="app.diagrams.net" modified="2020-12-09T01:43:38.993Z" agent="5.0 (Windows NT 10.0; Win64; x64) AppleWebKit/537.36 (KHTML, like Gecko) Chrome/80.0.3987.163 Safari/537.36" etag="8S4Q7TveKlQYe7xB6A5o" version="13.11.0" type="github">
  <diagram id="6a731a19-8d31-9384-78a2-239565b7b9f0" name="Page-1">
    <mxGraphModel dx="1393" dy="794" grid="1" gridSize="10" guides="1" tooltips="1" connect="1" arrows="1" fold="1" page="1" pageScale="1" pageWidth="1169" pageHeight="827" background="#003469" math="0" shadow="0">
      <root>
        <mxCell id="0" />
        <mxCell id="1" parent="0" />
        <mxCell id="2047" value="EBS应付操作流程" style="text;html=1;strokeColor=none;fillColor=none;align=center;verticalAlign=middle;whiteSpace=wrap;overflow=hidden;dashed=1;fontSize=36;fontColor=#FFFFFF;fontFamily=Helvetica;fontStyle=1" parent="1" vertex="1">
          <mxGeometry x="40" y="50" width="1060" height="50" as="geometry" />
        </mxCell>
        <mxCell id="8EqdA98-Pm4aeMhUXvsV-2085" value="同步明源数据" style="shape=step;perimeter=stepPerimeter;whiteSpace=wrap;html=1;fixedSize=1;size=10;fillColor=#10739E;strokeColor=none;fontSize=17;fontColor=#FFFFFF;fontStyle=1;align=center;rounded=0;" vertex="1" parent="1">
          <mxGeometry x="140" y="215" width="200" height="30" as="geometry" />
        </mxCell>
        <mxCell id="8EqdA98-Pm4aeMhUXvsV-2086" value="导入生成AP发票" style="shape=step;perimeter=stepPerimeter;whiteSpace=wrap;html=1;fixedSize=1;size=10;fillColor=#F2931E;strokeColor=none;fontSize=17;fontColor=#FFFFFF;fontStyle=1;align=center;rounded=0;" vertex="1" parent="1">
          <mxGeometry x="340" y="215" width="200" height="30" as="geometry" />
        </mxCell>
        <mxCell id="8EqdA98-Pm4aeMhUXvsV-2087" value="验证发票" style="shape=step;perimeter=stepPerimeter;whiteSpace=wrap;html=1;fixedSize=1;size=10;fillColor=#AE4132;strokeColor=none;fontSize=17;fontColor=#FFFFFF;fontStyle=1;align=center;rounded=0;" vertex="1" parent="1">
          <mxGeometry x="540" y="215" width="200" height="30" as="geometry" />
        </mxCell>
        <mxCell id="8EqdA98-Pm4aeMhUXvsV-2088" value="付款登记" style="shape=step;perimeter=stepPerimeter;whiteSpace=wrap;html=1;fixedSize=1;size=10;fillColor=#23445D;strokeColor=none;fontSize=17;fontColor=#FFFFFF;fontStyle=1;align=center;rounded=0;" vertex="1" parent="1">
          <mxGeometry x="740" y="215" width="200" height="30" as="geometry" />
        </mxCell>
        <mxCell id="8EqdA98-Pm4aeMhUXvsV-2089" value="付款登账" style="shape=step;perimeter=stepPerimeter;whiteSpace=wrap;html=1;fixedSize=1;size=10;fillColor=#12AAB5;strokeColor=none;fontSize=17;fontColor=#FFFFFF;fontStyle=1;align=center;rounded=0;" vertex="1" parent="1">
          <mxGeometry x="940" y="215" width="200" height="30" as="geometry" />
        </mxCell>
        <mxCell id="8EqdA98-Pm4aeMhUXvsV-2090" value="&lt;b&gt;职责：&lt;/b&gt;AP应付审核&lt;br&gt;&lt;b&gt;运行程序：&lt;/b&gt;&lt;br&gt;&amp;nbsp; SOHO_AP客制化 / 请求 / 同步明源数据&lt;br&gt;" style="shape=rect;fillColor=#B1DDF0;strokeColor=none;fontSize=12;html=1;whiteSpace=wrap;align=left;verticalAlign=top;spacing=5;rounded=0;" vertex="1" parent="1">
          <mxGeometry x="140" y="255" width="190" height="120" as="geometry" />
        </mxCell>
        <mxCell id="8EqdA98-Pm4aeMhUXvsV-2093" value="&lt;b&gt;职责：&lt;/b&gt;AP应付审核&lt;br&gt;&lt;b&gt;运行程序：&lt;/b&gt;&lt;br&gt;&amp;nbsp; SOHO_AP客制化 / 请求 / 导入生成AP发票（CBS）" style="shape=rect;fillColor=#FCE7CD;strokeColor=none;fontSize=12;html=1;whiteSpace=wrap;align=left;verticalAlign=top;spacing=5;rounded=0;" vertex="1" parent="1">
          <mxGeometry x="340" y="255" width="190" height="120" as="geometry" />
        </mxCell>
        <mxCell id="8EqdA98-Pm4aeMhUXvsV-2096" value="&amp;nbsp;- Lorem ipsum dolor sit amet&lt;br&gt;&amp;nbsp;- consectetur adipisicing elit&lt;br&gt;&amp;nbsp;- sed do eiusmod tempor&lt;br&gt;&amp;nbsp;- incididunt ut labore et dolore&lt;br&gt;&amp;nbsp;- magna aliqua." style="shape=rect;fillColor=#FAD9D5;strokeColor=none;fontSize=12;html=1;whiteSpace=wrap;align=left;verticalAlign=top;spacing=5;rounded=0;" vertex="1" parent="1">
          <mxGeometry x="540" y="255" width="190" height="120" as="geometry" />
        </mxCell>
        <mxCell id="8EqdA98-Pm4aeMhUXvsV-2099" value="&amp;nbsp;- Lorem ipsum dolor sit amet&lt;br&gt;&amp;nbsp;- consectetur adipisicing elit&lt;br&gt;&amp;nbsp;- sed do eiusmod tempor&lt;br&gt;&amp;nbsp;- incididunt ut labore et dolore&lt;br&gt;&amp;nbsp;- magna aliqua." style="shape=rect;fillColor=#BAC8D3;strokeColor=none;fontSize=12;html=1;whiteSpace=wrap;align=left;verticalAlign=top;spacing=5;rounded=0;" vertex="1" parent="1">
          <mxGeometry x="740" y="255" width="190" height="120" as="geometry" />
        </mxCell>
        <mxCell id="8EqdA98-Pm4aeMhUXvsV-2102" value="&amp;nbsp;- Lorem ipsum dolor sit amet&lt;br&gt;&amp;nbsp;- consectetur adipisicing elit&lt;br&gt;&amp;nbsp;- sed do eiusmod tempor&lt;br&gt;&amp;nbsp;- incididunt ut labore et dolore&lt;br&gt;&amp;nbsp;- magna aliqua." style="shape=rect;fillColor=#B0E3E6;strokeColor=none;fontSize=12;html=1;whiteSpace=wrap;align=left;verticalAlign=top;spacing=5;rounded=0;" vertex="1" parent="1">
          <mxGeometry x="940" y="255" width="190" height="120" as="geometry" />
        </mxCell>
        <mxCell id="8EqdA98-Pm4aeMhUXvsV-2108" value="明源付款申请办结归档" style="ellipse;whiteSpace=wrap;html=1;rounded=0;fontSize=17;fontColor=#FFFFFF;fontStyle=1;strokeColor=none;fillColor=#10739E;" vertex="1" parent="1">
          <mxGeometry x="20" y="190" width="120" height="80" as="geometry" />
        </mxCell>
      </root>
    </mxGraphModel>
  </diagram>
</mxfile>
